<svg xmlns="http://www.w3.org/2000/svg" viewBox="5440 94 22.441 23.142">
    <defs>
        <style>
            .cls-1{fill:#006bab}
        </style>
    </defs>
    <g id="icon-search" transform="translate(4508 -350)">
        <path id="Pfad_7" d="M8.2 16.375A8.188 8.188 0 1 1 16.4 8.2a8.2 8.2 0 0 1-8.2 8.175zm0-14.866A6.691 6.691 0 1 0 14.891 8.2 6.688 6.688 0 0 0 8.2 1.509z" class="cls-1" data-name="Pfad 7" transform="translate(932 444)"/>
        <path id="Pfad_8" d="M58.319 61.453a1.277 1.277 0 0 1-.906-.377l-7.471-7.748a1.263 1.263 0 1 1 1.811-1.761L59.2 59.29a1.268 1.268 0 0 1-.025 1.786 1.166 1.166 0 0 1-.856.377z" class="cls-1" data-name="Pfad 8" transform="translate(894.886 405.689)"/>
        <path id="Pfad_9" d="M18.085 34.49a5.792 5.792 0 0 1-5.785-5.735.741.741 0 0 1 .755-.755.757.757 0 0 1 .755.755 4.278 4.278 0 0 0 4.276 4.226 2.3 2.3 0 0 0 .428-.025.744.744 0 0 1 .83.679.758.758 0 0 1-.679.83c-.177 0-.378.025-.58.025z" class="cls-1" data-name="Pfad 9" transform="translate(922.794 423.043)"/>
    </g>
</svg>
