<svg aria-hidden="true" style="position: absolute; width: 0; height: 0; overflow: hidden;" version="1.1" xmlns="http://www.w3.org/2000/svg" xmlns:xlink="http://www.w3.org/1999/xlink">
<defs>
<symbol id="icon-twitter" viewBox="0 0 32 32">
<title>twitter</title>
<path d="M32.123 6.059c-1.098 0.539-2.377 0.898-3.728 1.002l-0.036 0.002c1.429-0.832 2.5-2.147 2.998-3.717l0.013-0.047c-1.229 0.722-2.666 1.25-4.196 1.496l-0.071 0.009c-1.295-1.053-2.95-1.707-4.757-1.757l-0.011-0c-0.022-0-0.048-0-0.074-0-3.64 0-6.602 2.9-6.702 6.516l-0 0.009c-0.006 0.073-0.009 0.158-0.009 0.244 0 0.456 0.096 0.89 0.269 1.282l-0.008-0.020c-5.476-0.208-10.31-2.791-13.526-6.743l-0.026-0.033c-0.57 0.934-0.934 2.050-1.003 3.245l-0.001 0.019c0.062 2.291 1.231 4.295 2.989 5.506l0.023 0.015c-1.103-0.012-2.138-0.289-3.049-0.77l0.036 0.018c0.017 3.183 2.245 5.841 5.226 6.516l0.045 0.009c-0.501 0-1.004 0.251-1.757 0.251h-1.254c0.886 2.64 3.337 4.509 6.226 4.509 0.017 0 0.034-0 0.050-0h-0.003c-2.304 1.665-5.166 2.691-8.263 2.768l-0.019 0h-1.506c2.85 1.819 6.306 2.929 10.017 3.011l0.022 0c0.024 0 0.052 0 0.079 0 10.351 0 18.743-8.391 18.743-18.743 0-0.028-0-0.056-0-0.084v0.004-0.753c1.202-1.123 2.275-2.355 3.213-3.689l0.050-0.075z"></path>
</symbol>
</defs>
</svg>
